{"asset":{"generator":"FBX2glTF v0.9.7","version":"2.0"},"scene":0,"extensionsUsed":["KHR_lights_punctual"],"buffers":[{"byteLength":832868,"uri":"data:application/octet-stream;base64,"}],"bufferViews":[{"buffer":0,"byteLength":1952,"byteOffset":0},{"buffer":0,"byteLength":5856,"byteOffset":1952},{"buffer":0,"byteLength":7808,"byteOffset":7808},{"buffer":0,"byteLength":7808,"byteOffset":15616},{"buffer":0,"byteLength":7808,"byteOffset":23424},{"buffer":0,"byteLength":7808,"byteOffset":31232},{"buffer":0,"byteLength":7808,"byteOffset":39040},{"buffer":0,"byteLength":7808,"byteOffset":46848},{"buffer":0,"byteLength":7808,"byteOffset":54656},{"buffer":0,"byteLength":7808,"byteOffset":62464},{"buffer":0,"byteLength":7808,"byteOffset":70272},{"buffer":0,"byteLength":7808,"byteOffset":78080},{"buffer":0,"byteLength":7808,"byteOffset":85888},{"buffer":0,"byteLength":7808,"byteOffset":93696},{"buffer":0,"byteLength":7808,"byteOffset":101504},{"buffer":0,"byteLength":7808,"byteOffset":109312},{"buffer":0,"byteLength":7808,"byteOffset":117120},{"buffer":0,"byteLength":7808,"byteOffset":124928},{"buffer":0,"byteLength":7808,"byteOffset":132736},{"buffer":0,"byteLength":7808,"byteOffset":140544},{"buffer":0,"byteLength":7808,"byteOffset":148352},{"buffer":0,"byteLength":7808,"byteOffset":156160},{"buffer":0,"byteLength":7808,"byteOffset":163968},{"buffer":0,"byteLength":7808,"byteOffset":171776},{"buffer":0,"byteLength":7808,"byteOffset":179584},{"buffer":0,"byteLength":7808,"byteOffset":187392},{"buffer":0,"byteLength":7808,"byteOffset":195200},{"buffer":0,"byteLength":7808,"byteOffset":203008},{"buffer":0,"byteLength":7808,"byteOffset":210816},{"buffer":0,"byteLength":7808,"byteOffset":218624},{"buffer":0,"byteLength":38532,"byteOffset":226432,"target":34963},{"buffer":0,"byteLength":58164,"byteOffset":264964,"target":34962},{"buffer":0,"byteLength":58164,"byteOffset":323128,"target":34962},{"buffer":0,"byteLength":38776,"byteOffset":381292,"target":34962},{"buffer":0,"byteLength":38776,"byteOffset":420068,"target":34962},{"buffer":0,"byteLength":77552,"byteOffset":458844,"target":34962},{"buffer":0,"byteLength":1944,"byteOffset":536396,"target":34963},{"buffer":0,"byteLength":3468,"byteOffset":538340,"target":34962},{"buffer":0,"byteLength":3468,"byteOffset":541808,"target":34962},{"buffer":0,"byteLength":2312,"byteOffset":545276,"target":34962},{"buffer":0,"byteLength":55488,"byteOffset":547588,"target":34963},{"buffer":0,"byteLength":57132,"byteOffset":603076,"target":34962},{"buffer":0,"byteLength":57132,"byteOffset":660208,"target":34962},{"buffer":0,"byteLength":38088,"byteOffset":717340,"target":34962},{"buffer":0,"byteLength":19200,"byteOffset":755428,"target":34963},{"buffer":0,"byteLength":21168,"byteOffset":774628,"target":34962},{"buffer":0,"byteLength":21168,"byteOffset":795796,"target":34962},{"buffer":0,"byteLength":14112,"byteOffset":816964,"target":34962},{"buffer":0,"byteLength":1792,"byteOffset":831076}],"scenes":[{"name":"Root Scene","nodes":[0]}],"accessors":[{"componentType":5126,"type":"SCALAR","count":488,"bufferView":0,"byteOffset":0,"min":[0],"max":[20.2916660308838]},{"componentType":5126,"type":"VEC3","count":488,"bufferView":1,"byteOffset":0},{"componentType":5126,"type":"VEC4","count":488,"bufferView":2,"byteOffset":0},{"componentType":5126,"type":"VEC4","count":488,"bufferView":3,"byteOffset":0},{"componentType":5126,"type":"VEC4","count":488,"bufferView":4,"byteOffset":0},{"componentType":5126,"type":"VEC4","count":488,"bufferView":5,"byteOffset":0},{"componentType":5126,"type":"VEC4","count":488,"bufferView":6,"byteOffset":0},{"componentType":5126,"type":"VEC4","count":488,"bufferView":7,"byteOffset":0},{"componentType":5126,"type":"VEC4","count":488,"bufferView":8,"byteOffset":0},{"componentType":5126,"type":"VEC4","count":488,"bufferView":9,"byteOffset":0},{"componentType":5126,"type":"VEC4","count":488,"bufferView":10,"byteOffset":0},{"componentType":5126,"type":"VEC4","count":488,"bufferView":11,"byteOffset":0},{"componentType":5126,"type":"VEC4","count":488,"bufferView":12,"byteOffset":0},{"componentType":5126,"type":"VEC4","count":488,"bufferView":13,"byteOffset":0},{"componentType":5126,"type":"VEC4","count":488,"bufferView":14,"byteOffset":0},{"componentType":5126,"type":"VEC4","count":488,"bufferView":15,"byteOffset":0},{"componentType":5126,"type":"VEC4","count":488,"bufferView":16,"byteOffset":0},{"componentType":5126,"type":"VEC4","count":488,"bufferView":17,"byteOffset":0},{"componentType":5126,"type":"VEC4","count":488,"bufferView":18,"byteOffset":0},{"componentType":5126,"type":"VEC4","count":488,"bufferView":19,"byteOffset":0},{"componentType":5126,"type":"VEC4","count":488,"bufferView":20,"byteOffset":0},{"componentType":5126,"type":"VEC4","count":488,"bufferView":21,"byteOffset":0},{"componentType":5126,"type":"VEC4","count":488,"bufferView":22,"byteOffset":0},{"componentType":5126,"type":"VEC4","count":488,"bufferView":23,"byteOffset":0},{"componentType":5126,"type":"VEC4","count":488,"bufferView":24,"byteOffset":0},{"componentType":5126,"type":"VEC4","count":488,"bufferView":25,"byteOffset":0},{"componentType":5126,"type":"VEC4","count":488,"bufferView":26,"byteOffset":0},{"componentType":5126,"type":"VEC4","count":488,"bufferView":27,"byteOffset":0},{"componentType":5126,"type":"VEC4","count":488,"bufferView":28,"byteOffset":0},{"componentType":5126,"type":"VEC4","count":488,"bufferView":29,"byteOffset":0},{"componentType":5123,"type":"SCALAR","count":19266,"bufferView":30,"byteOffset":0},{"componentType":5126,"type":"VEC3","count":4847,"bufferView":31,"byteOffset":0,"min":[-0.609445989131927,-1.37791550159454,-0.444657236337662],"max":[0.590180397033691,0.927842855453491,0.336060792207718]},{"componentType":5126,"type":"VEC3","count":4847,"bufferView":32,"byteOffset":0},{"componentType":5126,"type":"VEC2","count":4847,"bufferView":33,"byteOffset":0},{"componentType":5123,"type":"VEC4","count":4847,"bufferView":34,"byteOffset":0},{"componentType":5126,"type":"VEC4","count":4847,"bufferView":35,"byteOffset":0},{"componentType":5123,"type":"SCALAR","count":972,"bufferView":36,"byteOffset":0},{"componentType":5126,"type":"VEC3","count":289,"bufferView":37,"byteOffset":0,"min":[-1.36725902557373,-0.245590284466743,-1.36725902557373],"max":[1.36725902557373,0,1.36725902557373]},{"componentType":5126,"type":"VEC3","count":289,"bufferView":38,"byteOffset":0},{"componentType":5126,"type":"VEC2","count":289,"bufferView":39,"byteOffset":0},{"componentType":5123,"type":"SCALAR","count":27744,"bufferView":40,"byteOffset":0},{"componentType":5126,"type":"VEC3","count":4761,"bufferView":41,"byteOffset":0,"min":[-1.49609994888306,-0.0553212016820908,-2.17984700202942],"max":[1.49609994888306,0.0553212016820908,0.812353014945984]},{"componentType":5126,"type":"VEC3","count":4761,"bufferView":42,"byteOffset":0},{"componentType":5126,"type":"VEC2","count":4761,"bufferView":43,"byteOffset":0},{"componentType":5123,"type":"SCALAR","count":9600,"bufferView":44,"byteOffset":0},{"componentType":5126,"type":"VEC3","count":1764,"bufferView":45,"byteOffset":0,"min":[-1.67491340637207,-0.339752197265625,-0.703055381774902],"max":[0.287215709686279,1.02158677577972,0.79904717206955]},{"componentType":5126,"type":"VEC3","count":1764,"bufferView":46,"byteOffset":0},{"componentType":5126,"type":"VEC2","count":1764,"bufferView":47,"byteOffset":0},{"componentType":5126,"type":"MAT4","count":28,"bufferView":48,"byteOffset":0}],"images":[{"name":"SymmetrySurface_Color.png","uri":"data:application/octet-stream;base64,"},{"name":"TpO8H.png","uri":"data:application/octet-stream;base64,"},{"name":"fire.jpg","uri":"data:application/octet-stream;base64,"}],"samplers":[{}],"textures":[{"name":"SymmetrySurface_Color","sampler":0,"source":0},{"name":"TpO8H","sampler":0,"source":1},{"name":"fire","sampler":0,"source":2}],"materials":[{"name":"Symmetry.1","alphaMode":"OPAQUE","extras":{"fromFBX":{"shadingModel":"Phong","isTruePBR":false}},"pbrMetallicRoughness":{"baseColorTexture":{"index":0,"texCoord":0},"baseColorFactor":[1,1,1,1],"metallicFactor":0.400000005960464,"roughnessFactor":0.242535620927811}},{"name":"Mat.1","alphaMode":"OPAQUE","extras":{"fromFBX":{"shadingModel":"Phong","isTruePBR":false}},"pbrMetallicRoughness":{"baseColorTexture":{"index":1,"texCoord":0},"baseColorFactor":[1,1,1,1],"metallicFactor":0.400000005960464,"roughnessFactor":0.242535620927811}},{"name":"Mat.2","alphaMode":"OPAQUE","extras":{"fromFBX":{"shadingModel":"Lambert","isTruePBR":false}},"emissiveFactor":[1,0,0],"pbrMetallicRoughness":{"baseColorFactor":[0,0,0,1],"metallicFactor":0.200000002980232,"roughnessFactor":0.800000011920929}},{"name":"Mat","alphaMode":"OPAQUE","extras":{"fromFBX":{"shadingModel":"Lambert","isTruePBR":false}},"emissiveTexture":{"index":2,"texCoord":0},"emissiveFactor":[1,1,1],"pbrMetallicRoughness":{"baseColorFactor":[0,0,0,1],"metallicFactor":0.200000002980232,"roughnessFactor":0.800000011920929}}],"meshes":[{"name":"Symmetry","primitives":[{"material":0,"mode":4,"attributes":{"JOINTS_0":34,"NORMAL":32,"POSITION":31,"TEXCOORD_0":33,"WEIGHTS_0":35},"indices":30}]},{"name":"Disc","primitives":[{"material":1,"mode":4,"attributes":{"NORMAL":38,"POSITION":37,"TEXCOORD_0":39},"indices":36}]},{"name":"Sweep_1","primitives":[{"material":2,"mode":4,"attributes":{"NORMAL":42,"POSITION":41,"TEXCOORD_0":43},"indices":40}]},{"name":"Plane_4","primitives":[{"material":3,"mode":4,"attributes":{"NORMAL":46,"POSITION":45,"TEXCOORD_0":47},"indices":44}]}],"skins":[{"joints":[8,7,6,19,20,21,22,23,24,15,16,12,13,14,11,33,34,32,31,28,29,27,18,10,26,3,4,5],"inverseBindMatrices":48,"skeleton":3}],"animations":[{"name":"CINEMA_4D_Main","channels":[{"sampler":0,"target":{"node":3,"path":"translation"}},{"sampler":1,"target":{"node":3,"path":"rotation"}},{"sampler":2,"target":{"node":4,"path":"rotation"}},{"sampler":3,"target":{"node":5,"path":"rotation"}},{"sampler":4,"target":{"node":6,"path":"rotation"}},{"sampler":5,"target":{"node":7,"path":"rotation"}},{"sampler":6,"target":{"node":8,"path":"rotation"}},{"sampler":7,"target":{"node":10,"path":"rotation"}},{"sampler":8,"target":{"node":11,"path":"rotation"}},{"sampler":9,"target":{"node":12,"path":"rotation"}},{"sampler":10,"target":{"node":13,"path":"rotation"}},{"sampler":11,"target":{"node":14,"path":"rotation"}},{"sampler":12,"target":{"node":15,"path":"rotation"}},{"sampler":13,"target":{"node":16,"path":"rotation"}},{"sampler":14,"target":{"node":18,"path":"rotation"}},{"sampler":15,"target":{"node":19,"path":"rotation"}},{"sampler":16,"target":{"node":20,"path":"rotation"}},{"sampler":17,"target":{"node":21,"path":"rotation"}},{"sampler":18,"target":{"node":22,"path":"rotation"}},{"sampler":19,"target":{"node":23,"path":"rotation"}},{"sampler":20,"target":{"node":24,"path":"rotation"}},{"sampler":21,"target":{"node":26,"path":"rotation"}},{"sampler":22,"target":{"node":27,"path":"rotation"}},{"sampler":23,"target":{"node":28,"path":"rotation"}},{"sampler":24,"target":{"node":29,"path":"rotation"}},{"sampler":25,"target":{"node":31,"path":"rotation"}},{"sampler":26,"target":{"node":32,"path":"rotation"}},{"sampler":27,"target":{"node":33,"path":"rotation"}},{"sampler":28,"target":{"node":34,"path":"rotation"}}],"samplers":[{"input":0,"interpolation":"LINEAR","output":1},{"input":0,"interpolation":"LINEAR","output":2},{"input":0,"interpolation":"LINEAR","output":3},{"input":0,"interpolation":"LINEAR","output":4},{"input":0,"interpolation":"LINEAR","output":5},{"input":0,"interpolation":"LINEAR","output":6},{"input":0,"interpolation":"LINEAR","output":7},{"input":0,"interpolation":"LINEAR","output":8},{"input":0,"interpolation":"LINEAR","output":9},{"input":0,"interpolation":"LINEAR","output":10},{"input":0,"interpolation":"LINEAR","output":11},{"input":0,"interpolation":"LINEAR","output":12},{"input":0,"interpolation":"LINEAR","output":13},{"input":0,"interpolation":"LINEAR","output":14},{"input":0,"interpolation":"LINEAR","output":15},{"input":0,"interpolation":"LINEAR","output":16},{"input":0,"interpolation":"LINEAR","output":17},{"input":0,"interpolation":"LINEAR","output":18},{"input":0,"interpolation":"LINEAR","output":19},{"input":0,"interpolation":"LINEAR","output":20},{"input":0,"interpolation":"LINEAR","output":21},{"input":0,"interpolation":"LINEAR","output":22},{"input":0,"interpolation":"LINEAR","output":23},{"input":0,"interpolation":"LINEAR","output":24},{"input":0,"interpolation":"LINEAR","output":25},{"input":0,"interpolation":"LINEAR","output":26},{"input":0,"interpolation":"LINEAR","output":27},{"input":0,"interpolation":"LINEAR","output":28},{"input":0,"interpolation":"LINEAR","output":29}]}],"nodes":[{"name":"RootNode","translation":[0,0,0],"rotation":[0,0,0,1],"scale":[1,1,1],"children":[1,36,37,38,39,40]},{"name":"Null_1","translation":[-0.307133108377457,-8.94483997657282e-17,1.46080315113068],"rotation":[-0.70710676908493,0,0,0.70710676908493],"scale":[1,1,1],"children":[2,3]},{"name":"Symmetry","translation":[-0.00835691578686237,1.71021604537964,-0.288955748081207],"rotation":[0.00873757991939783,0.998157978057861,-0.0596041269600391,-0.00718812411651015],"scale":[1,1,1],"mesh":0,"skin":0},{"name":"mixamorig_Hips","translation":[-0.00186747231055051,0.531692028045654,-0.0278992727398872],"rotation":[0.00909357517957687,-0.0667057409882545,0.0328100509941578,0.997191607952118],"scale":[1,1,1],"children":[4,26,31]},{"name":"mixamorig_Spine","translation":[7.10542719878232e-17,0.0680207833647728,0.0015779685927555],"rotation":[0.0410057008266449,-0.0449593290686607,-0.0558379255235195,0.996583819389343],"scale":[1,1,1],"children":[5]},{"name":"mixamorig_Spine1","translation":[-3.55271359939116e-17,0.0793788805603981,-4.99636408635151e-11],"rotation":[-0.012992505915463,-0.0213896129280329,-0.0265120584517717,0.999335169792175],"scale":[1,1,1],"children":[6]},{"name":"mixamorig_Spine2","translation":[-7.10542719878232e-17,0.0907187536358833,8.0776097616253e-12],"rotation":[-0.0119768921285868,-0.024489488452673,-0.0245791953057051,0.999326109886169],"scale":[1,1,1],"children":[7,10,18]},{"name":"mixamorig_Neck","translation":[0,0.102058544754982,-1.08027391476639e-8],"rotation":[-0.0385642275214195,-0.0100854430347681,0.0177782531827688,0.999047040939331],"scale":[1,1,1],"children":[8]},{"name":"mixamorig_Head","translation":[-3.55271359939116e-17,0.150721579790115,-0.0281326379626989],"rotation":[-0.0320714116096497,-0.14213515818119,0.0435967743396759,0.988366484642029],"scale":[1,1,1],"children":[9]},{"name":"mixamorig_HeadTop_End","translation":[-2.48689958574826e-16,0.781826913356781,-0.14593032002449],"rotation":[-1.38777878078145e-17,-5.98479599211998e-17,-1.56125112837913e-17,1],"scale":[1,1,1]},{"name":"mixamorig_LeftShoulder","translation":[0.0531775765120983,0.0824019685387611,0.000341034901794046],"rotation":[0.571499943733215,0.470778226852417,-0.553527116775513,0.381265461444855],"scale":[1,1,1],"children":[11]},{"name":"mixamorig_LeftArm","translation":[-2.28436280308442e-11,0.116576783359051,1.37714750714224e-9],"rotation":[0.253458231687546,-0.188862413167953,-0.0297515392303467,0.948264062404633],"scale":[1,1,1],"children":[12]},{"name":"mixamorig_LeftForeArm","translation":[-2.68018263832603e-11,0.138762325048447,4.80204875863421e-10],"rotation":[-0.0185206085443497,-0.284590005874634,0.79030168056488,0.542299509048462],"scale":[1,1,1],"children":[13]},{"name":"mixamorig_LeftHand","translation":[4.12848054354154e-11,0.182725012302399,-1.61398727716033e-10],"rotation":[0.181006461381912,0.227454155683517,0.15386138856411,0.94436639547348],"scale":[1,1,1],"children":[14]},{"name":"mixamorig_LeftHandIndex1","translation":[2.14411877141885e-10,0.0395777896046638,-1.32657620999233e-10],"rotation":[0.633291721343994,-0.0265547409653664,-0.0772077590227127,0.769594311714172],"scale":[1,1,1],"children":[15]},{"name":"mixamorig_LeftHandIndex2","translation":[4.14718918928525e-11,0.0345842018723488,-3.32756960874647e-10],"rotation":[0.777776718139648,0.0496226437389851,-0.131299033761024,0.612667560577393],"scale":[1,1,1],"children":[16]},{"name":"mixamorig_LeftHandIndex3","translation":[-0.00615003705024719,0.0347117744386196,-0.00710497889667749],"rotation":[0.505487859249115,0.0796825662255287,-0.0601292625069618,0.85703980922699],"scale":[1,1,1],"children":[17]},{"name":"mixamorig_LeftHandIndex4","translation":[-0.00219027046114206,0.0144784916192293,0.00199502357281744],"rotation":[-1.34815096107107e-33,2.77555756156289e-17,4.85722573273506e-17,1],"scale":[1,1,1]},{"name":"mixamorig_RightShoulder","translation":[-0.0531775765120983,0.0824073031544685,0.000570818141568452],"rotation":[0.581184387207031,-0.461691677570343,0.506447911262512,0.438834875822067],"scale":[1,1,1],"children":[19]},{"name":"mixamorig_RightArm","translation":[-4.50852861988427e-11,0.116576813161373,-1.34858635369994e-9],"rotation":[0.33649605512619,-0.0840046629309654,0.0302275065332651,0.937443256378174],"scale":[1,1,1],"children":[20]},{"name":"mixamorig_RightForeArm","translation":[-1.25369575831868e-11,0.138760969042778,-3.19378308522023e-11],"rotation":[-0.0201249029487371,0.287725865840912,-0.798999190330505,0.527644872665405],"scale":[1,1,1],"children":[21]},{"name":"mixamorig_RightHand","translation":[-1.32627492321902e-10,0.182729616761208,6.05875488668417e-11],"rotation":[-0.0538318306207657,0.0866709426045418,0.100037761032581,0.989738702774048],"scale":[1,1,1],"children":[22]},{"name":"mixamorig_RightHandIndex1","translation":[6.2414071307082e-12,0.03381023183465,3.24066468104789e-11],"rotation":[0.565266847610474,0.0206678099930286,0.0692500099539757,0.821736395359039],"scale":[1,1,1],"children":[23]},{"name":"mixamorig_RightHandIndex2","translation":[1.87147436436774e-10,0.0339939929544926,-5.98248006689062e-10],"rotation":[0.692448973655701,0.0379583016037941,0.0217582620680332,0.720138967037201],"scale":[1,1,1],"children":[24]},{"name":"mixamorig_RightHandIndex3","translation":[-0.00400296226143837,0.0425932817161083,-0.00472100684419274],"rotation":[0.513523995876312,0.0548466742038727,0.0378637984395027,0.855483055114746],"scale":[1,1,1],"children":[25]},{"name":"mixamorig_RightHandIndex4","translation":[-0.00104536570142955,0.0113034220412374,0.0012566507793963],"rotation":[4.9960036108132e-16,2.22044604925031e-16,-2.77555756156289e-17,1],"scale":[1,1,1]},{"name":"mixamorig_LeftUpLeg","translation":[0.0882893353700638,-0.0378003679215908,0.00924510974436998],"rotation":[0.0386549942195415,0.113418594002724,0.990616261959076,0.0657375380396843],"scale":[1,1,1],"children":[27]},{"name":"mixamorig_LeftLeg","translation":[-1.78721551447047e-10,0.171045392751694,-3.15544916584809e-11],"rotation":[-0.253258734941483,-0.0900696739554405,0.0517142564058304,0.961807191371918],"scale":[1,1,1],"children":[28]},{"name":"mixamorig_LeftFoot","translation":[-8.52730275280322e-10,0.106491938233376,8.98247518033024e-11],"rotation":[0.436543047428131,0.00133590039331466,0.144784808158875,0.887955963611603],"scale":[1,1,1],"children":[29]},{"name":"mixamorig_LeftToeBase","translation":[-1.6322272422542e-9,0.297555238008499,-3.42762773719585e-9],"rotation":[0.462819486856461,-0.155829861760139,0.0790235698223114,0.869062960147858],"scale":[1,1,1],"children":[30]},{"name":"mixamorig_LeftToe_End","translation":[-1.90774462893728e-9,0.106882944703102,-2.89044510548564e-10],"rotation":[-4.13483469685616e-10,4.16333634234434e-16,-9.36750677027476e-17,1],"scale":[1,1,1]},{"name":"mixamorig_RightUpLeg","translation":[-0.0882893353700638,-0.0378003679215908,0.00815467815846205],"rotation":[-0.0864686742424965,0.250796288251877,0.963698208332062,0.0301683135330677],"scale":[1,1,1],"children":[32]},{"name":"mixamorig_RightLeg","translation":[5.12423437015741e-10,0.171043395996094,1.91832313922724e-12],"rotation":[-0.308505833148956,-0.092921070754528,-0.0359725654125214,0.945989310741425],"scale":[1,1,1],"children":[33]},{"name":"mixamorig_RightFoot","translation":[9.45059586143771e-10,0.106500096619129,3.04927645633501e-11],"rotation":[0.358351230621338,-0.00599811831489205,-0.136845722794533,0.923483431339264],"scale":[1,1,1],"children":[34]},{"name":"mixamorig_RightToeBase","translation":[-1.1728409909928e-10,0.294690161943436,-9.44467171137831e-9],"rotation":[0.446223646402359,0.150258436799049,-0.0764340087771416,0.878899693489075],"scale":[1,1,1],"children":[35]},{"name":"mixamorig_RightToe_End","translation":[1.57974788805859e-9,0.105683274567127,-7.28022087059799e-11],"rotation":[-5.22777307554456e-11,4.44089209850063e-16,-4.16333634234434e-17,1],"scale":[1,1,1]},{"name":"Light","translation":[-0.297726064920425,0.96587735414505,-1.71212840080261],"rotation":[0.22552989423275,0.486695170402527,0.832900404930115,0.136165395379066],"scale":[1,1,1],"extensions":{"KHR_lights_punctual":{"light":0}}},{"name":"Disc","translation":[-0.297726064920425,-0.96587735414505,1.47715294361115],"rotation":[-0.70710676908493,0,0,0.70710676908493],"scale":[1,1,1],"mesh":1},{"name":"Sweep_1","translation":[-0.297726064920425,-0.361552625894547,1.71212840080261],"rotation":[-0.70710676908493,0,0,0.70710676908493],"scale":[1,1,1],"mesh":2},{"name":"Plane_4","translation":[0.306082993745804,-0.515990376472473,1.1091160774231],"rotation":[-0.677505493164063,-0.225518390536308,0.22825813293457,0.661835312843323],"scale":[1,1,1],"mesh":3},{"name":"Null","translation":[-0.297726064920425,-0.104112334549427,1.47440075874329],"rotation":[-0.70710676908493,0,0,0.70710676908493],"scale":[1,1,1]}],"extensions":{"KHR_lights_punctual":{"lights":[{"name":"","color":[1,0.790000021457672,0.699999988079071],"intensity":0.99964052438736,"type":"point"}]}}}